# AST/ASF file generated using VICON BodyLanguage
# -----------------------------------------------
:version 1.10
:name VICON
:units
  mass 1.0
  length 0.45
  angle deg
:documentation
   .ast/.asf automatically generated from VICON data using
   VICON BodyBuilder and BodyLanguage model FoxedUp or BRILLIANT.MOD
:root
   order TX TY TZ RX RY RZ
   axis XYZ
   position 0 0 0  
   orientation 0 -0 0 
:bonedata
  begin
     id 1 
     name lhipjoint
     direction 0.515797 -0.759363 0.396637 
     length 2.47888 
     axis 0 -0 0  XYZ
  end
  begin
     id 2 
     name lfemur
     direction 0.34202 -0.939693 0  
     length 6.81885  
     axis 0 -0 20  XYZ
    dof rx ry rz
    limits (-160.0 20.0)
           (-70.0 70.0)
           (-60.0 70.0)
  end
  begin
     id 3 
     name ltibia
     direction 0.342037 -0.939687 0   
     length 7.89258   
     axis 0 -0 20   XYZ
    dof rx
    limits (-10.0 170.0)
  end
  begin
     id 4 
     name lfoot
     direction 0.173497 -0.476678 0.861787   
     length 2.51543   
     axis -90 -1.13533e-015 20   XYZ
    dof rx rz
    limits (-45.0 90.0)
           (-70.0 20.0)
  end
  begin
     id 5 
     name ltoes
     direction 1.53564e-011 -4.21897e-011 1   
     length 1.21388   
     axis -90 -1.13533e-015 20   XYZ
    dof rx
    limits (-90.0 20.0)
  end
  begin
     id 6 
     name rhipjoint
     direction -0.489454 -0.772941 0.403729   
     length 2.43534  
     axis 0 -0 0  XYZ 
  end
  begin
     id 7 
     name rfemur
     direction -0.34202 -0.939693 0   
     length 7.10357   
     axis 0 -0 -20   XYZ
    dof rx ry rz
    limits (-160.0 20.0)
           (-70.0 70.0)
           (-70.0 60.0)
  end
  begin
     id 8 
     name rtibia
     direction -0.34202 -0.939693 0   
     length 9.16127   
     axis 0 -0 -20   XYZ
    dof rx
    limits (-10.0 170.0)
 end
 begin
     id 9 
     name rfoot
     direction -0.270974 -0.748671 0.605033   
     length 1.74894  
     axis -90 1.13533e-015 -20   XYZ
    dof rx rz
    limits (-45.0 90.0)
           (-20.0 70.0)
  end
  begin
     id 10 
     name rtoes
     direction -1.53557e-011 -4.21759e-011 1   
     length 0.787585   
     axis -90 1.13533e-015 -20   XYZ
    dof rx
    limits (-90.0 20.0)
  end
  begin
     id 11 
     name lowerback
     direction -0.0140249 0.999561 0.0260968   
     length 2.16963   
     axis 0 -0 0   XYZ
    dof rx ry rz
    limits (-20.0 45.0)
           (-30.0 30.0)
           (-30.0 30.0)
  end
  begin
     id 12 
     name upperback
     direction 0.00860018 0.999959 -0.002711   
     length 2.1726   
     axis 0 -0 0   XYZ
    dof rx ry rz
    limits (-20.0 45.0)
           (-30.0 30.0)
           (-30.0 30.0)
  end
  begin
     id 13 
     name thorax
     direction 0.015211 0.999782 -0.0143191   
     length 2.17061   
     axis 0 -0 0   XYZ
    dof rx ry rz
    limits (-20.0 45.0)
           (-30.0 30.0)
           (-30.0 30.0)
  end
  begin
     id 14 
     name lowerneck
     direction -0.0140143 0.999447 0.030145   
     length 2.26749   
     axis 0 -0 0   XYZ
    dof rx ry rz
    limits (-20.0 45.0)
           (-30.0 30.0)
           (-30.0 30.0)
  end
  begin
     id 15 
     name upperneck
     direction 0.118062 0.961438 -0.248392   
     length 2.22728   
     axis 0 -0 0   XYZ
    dof rx ry rz
    limits (-20.0 45.0)
           (-30.0 30.0)
           (-30.0 30.0)
  end
  begin
     id 16
     name head
     direction 0.0431885 0.9954 -0.085514  
     length 2.28786  
     axis 0 -0 0   XYZ
    dof rx ry rz
    limits (-20.0 45.0)
           (-30.0 30.0)
           (-30.0 30.0)
  end
  begin
     id 17 
     name lclavicle
     direction 0.912126 0.409548 0.0172323  
     length 4.31571  
     axis 0 -0 0   XYZ
    dof ry rz
    limits (-20.0 10.0)
           (0.0 20.0)
  end
  begin
     id 18 
     name lhumerus
     direction 1 -4.48977e-011 1.93091e-027   
     length 5.13658   
     axis 180 -30 -90   XYZ
    dof rx ry rz
    limits (-60.0 90.0)
           (-90.0 90.0)
           (-90.0 90.0)
  end
  begin
     id 19
     name lradius
     direction 1 -4.48916e-011 6.84018e-027   
     length 3.22473   
     axis 180 -30 -90   XYZ
    dof rx
    limits (-10.0 170.0)
  end
  begin
     id 20
     name lwrist
     direction 1 -4.48987e-011 7.01981e-027   
     length 1.61236   
     axis -4.37994e-015 90 90   XYZ
    dof ry
    limits (-180.0 0.0)
 end
  begin
     id 21 
     name lhand
     direction 1 -4.49037e-011 1.40335e-026   
     length 0.936406   
     axis -8.96029e-015 90 90   XYZ
    dof rx rz
    limits (-90.0 90.0)
           (-45.0 45.0)
  end
  begin
     id 22 
     name lfingers
     direction 1 -4.48886e-011 2.8104e-026   
     length 0.754955   
     axis -1.79203e-014 90 90   XYZ
    dof rx
    limits (0.0 90.0)
  end
  begin
     id 23
     name lthumb
     direction 0.707107 -6.34937e-011 0.707107   
     length 1.08397   
     axis -90 45 -4.48555e-014   XYZ
    dof rx rz
    limits (-45.0 45.0)
           (-45.0 45.0)
  end
  begin
     id 24 
     name rclavicle
     direction -0.947962 0.317997 0.0156638   
     length 4.86918  
     axis 0 -0 0   XYZ 
    dof ry rz
    limits (-10.0 20.0)
           (-20.0 0.0)
  end
  begin
     id 25 
     name rhumerus
     direction -1 -4.48951e-011 2.80534e-018  
     length 5.60911   
     axis 180 30 90   XYZ
    dof rx ry rz
    limits (-90.0 60.0)
           (-90.0 90.0)
           (-90.0 90.0)
  end
  begin
     id 26 
     name rradius
     direction -1 -4.4898e-011 2.11315e-027   
     length 3.38704   
     axis 180 30 90   XYZ
    dof rx
    limits (-10.0 170.0)
  end
  begin
     id 27 
     name rwrist
     direction -1 -4.48933e-011 7.02314e-027   
     length 1.69352   
     axis -4.37994e-015 -90 -90   XYZ
    dof ry
    limits (-180.0 0.0)
  end
  begin
     id 28
     name rhand
     direction -1 -4.48937e-011 1.40458e-026   
     length 0.755878   
     axis -8.96029e-015 -90 -90   XYZ
    dof rx rz
    limits (-90.0 90.0)
           (-45.0 45.0)
  end
  begin
     id 29
     name rfingers
     direction -1 -4.4901e-011 2.80737e-026   
     length 0.609409   
     axis -1.79203e-014 -90 -90   XYZ
    dof rx
    limits (0.0 90.0)
  end
  begin
     id 30
     name rthumb
     direction -0.707107 -6.34968e-011 0.707107   
     length 0.874992   
     axis -90 -45 4.48555e-014   XYZ
    dof rx rz
    limits (-45.0 45.0)
           (-45.0 45.0)
  end
:hierarchy
  begin
    root lhipjoint rhipjoint lowerback
    lhipjoint lfemur
    lfemur ltibia
    ltibia lfoot
    lfoot ltoes
    rhipjoint rfemur
    rfemur rtibia
    rtibia rfoot
    rfoot rtoes
    lowerback upperback
    upperback thorax
    thorax lowerneck lclavicle rclavicle
    lowerneck upperneck
    upperneck head
    lclavicle lhumerus
    lhumerus lradius
    lradius lwrist
    lwrist lhand lthumb
    lhand lfingers
    rclavicle rhumerus
    rhumerus rradius
    rradius rwrist
    rwrist rhand rthumb
    rhand rfingers
  end

#!OML:ASF C:\ViconDB\ViconDB\414\Spring2016\041811\Spring2016.ASF
:FULLY-SPECIFIED
:DEGREES
47
root 6.75994 16.5288 31.6508 -167.874 3.00594 -177.035
lowerback 19.6946 3.25571 0.851404
upperback 4.95661 5.6817 3.9706
thorax -5.95585 3.16396 2.33864
lowerneck -10.3768 -3.5876 -14.358
upperneck 21.4476 -7.83071 17.6756
head 9.67635 -3.62338 7.77371
rclavicle -4.37326e-014 2.8625e-014
rhumerus -46.037 -7.68953 -79.7321
rradius 91.3371
rwrist 9.24366
rhand -37.3114 -12.09
rfingers 7.12502
rthumb -10.375 -41.8141
lclavicle -4.37326e-014 2.8625e-014
lhumerus -62.9369 -16.652 100.267
lradius 65.3435
lwrist -13.2469
lhand -34.1294 14.0282
lfingers 7.12502
lthumb -7.30452 43.8821
rfemur -15.0159 -6.41404 24.5626
rtibia 53.8904
rfoot -168.849 21.339
rtoes -1.32668
lfemur -38.5172 0.0462869 -13.341
ltibia 90.9936
lfoot -0.0513298 -6.63502
ltoes -6.85908
48
root 6.75853 16.5248 31.4224 -167.919 3.64563 -176.878
lowerback 19.6567 3.47757 0.844529
upperback 5.09732 5.964 3.84183
thorax -5.78249 3.30477 2.14299
lowerneck -10.5783 -3.65452 -14.0262
upperneck 20.9601 -7.78881 17.5817
head 9.52494 -3.55331 7.65804
rclavicle -2.06736e-014 -3.02153e-014
rhumerus -43.2972 -6.86294 -79.8046
rradius 93.2861
rwrist 9.2792
rhand -37.9404 -13.0711
rfingers 7.12502
rthumb -10.9818 -42.7639
lclavicle -2.06736e-014 -3.02153e-014
lhumerus -65.2611 -16.7128 99.7369
lradius 63.8978
lwrist -11.5158
lhand -34.1419 13.5175
lfingers 7.12502
lthumb -7.3165 43.371
rfemur -13.3266 -6.04046 24.3429
rtibia 52.529
rfoot -168.308 21.5408
rtoes -1.73223
lfemur -41.4789 1.19858 -13.6558
ltibia 92.7729
lfoot -1.34957 -7.33252
ltoes -7.31327
49
root 6.77497 16.5221 31.1805 -167.993 4.28537 -176.692
lowerback 19.8256 3.75797 0.612602
upperback 5.046 6.26837 3.75474
thorax -5.95153 3.44616 2.09022
lowerneck -10.7813 -3.7276 -13.7011
upperneck 20.752 -7.81493 17.4002
head 9.4793 -3.53387 7.51459
rclavicle -3.89618e-014 4.92986e-014
rhumerus -41.0024 -5.91671 -79.8839
rradius 95.5496
rwrist 8.92562
rhand -38.1634 -12.9165
rfingers 7.12502
rthumb -11.1968 -42.5977
lclavicle -3.89618e-014 4.92986e-014
lhumerus -68.1152 -16.9133 99.4246
lradius 62.7236
lwrist -10.8942
lhand -34.0242 13.7338
lfingers 7.12502
lthumb -7.20294 43.5912
rfemur -11.4361 -5.43616 24.2697
rtibia 50.9787
rfoot -168.105 21.6491
rtoes -2.5114
lfemur -44.1463 2.36652 -13.7479
ltibia 94.1812
lfoot -2.72409 -8.19275
ltoes -9.01686
50
root 6.76161 16.5141 30.9465 -167.957 5.08624 -176.522
lowerback 19.99 4.00403 0.673601
upperback 4.97806 6.56812 3.53565
thorax -6.09033 3.57779 1.73233
lowerneck -10.9381 -3.8028 -13.5996
upperneck 20.36 -7.83164 17.4781
head 9.37988 -3.50709 7.50571
rclavicle 7.87187e-014 -3.73715e-014
rhumerus -38.7315 -4.61608 -79.9508
rradius 98.3093
rwrist 7.42863
rhand -38.3982 -12.903
rfingers 7.12502
rthumb -11.4233 -42.5718
lclavicle 7.87187e-014 -3.73715e-014
lhumerus -71.0626 -17.0918 99.1017
lradius 62.3048
lwrist -10.8964
lhand -33.8257 14.3951
lfingers 7.12502
lthumb -7.01132 44.259
rfemur -9.71615 -5.04167 23.8997
rtibia 49.3292
rfoot -167.398 21.978
rtoes -3.33185
lfemur -46.9584 3.41058 -14.0772
ltibia 95.3212
lfoot -4.22947 -8.44034
ltoes -8.14042
51
root 6.77295 16.5055 30.6892 -167.832 5.5677 -176.317
lowerback 19.7482 4.21237 0.606208
upperback 4.94241 6.78593 3.38581
thorax -5.99752 3.67448 1.57399
lowerneck -11.0396 -3.90551 -13.485
upperneck 19.9157 -7.89529 17.5738
head 9.26141 -3.50361 7.49327
rclavicle -6.44062e-014 -7.15625e-015
rhumerus -36.5257 -3.50978 -80.0805
rradius 101.049
rwrist 7.14441
rhand -37.8556 -13.1742
rfingers 7.12502
rthumb -10.9 -42.8712
lclavicle -6.44062e-014 -7.15625e-015
lhumerus -74.1268 -17.5541 98.9579
lradius 62.6774
lwrist -9.98459
lhand -33.7933 14.3001
lfingers 7.12502
lthumb -6.98002 44.165
rfemur -7.8436 -4.61824 23.8454
rtibia 47.4914
rfoot -167.36 22.0194
rtoes -2.19243
lfemur -49.765 4.33483 -14.2662
ltibia 96.0543
lfoot -5.88235 -8.83564
ltoes -9.50297
52
root 6.77925 16.5088 30.4242 -167.567 6.28682 -176.08
lowerback 19.4603 4.55417 0.479027
upperback 4.81333 7.15517 3.26292
thorax -5.99553 3.83822 1.44091
lowerneck -10.9702 -3.99841 -13.5203
upperneck 19.3873 -7.91595 17.6733
head 9.08006 -3.49883 7.51329
rclavicle 4.77083e-015 3.18055e-015
rhumerus -34.3929 -2.27132 -79.8318
rradius 104.155
rwrist 5.99247
rhand -36.7972 -13.3994
rfingers 7.12502
rthumb -9.87895 -43.1477
lclavicle 4.77083e-015 3.18055e-015
lhumerus -77.3097 -18.0436 98.9631
lradius 63.4151
lwrist -10.2027
lhand -33.5511 13.6024
lfingers 7.12502
lthumb -6.7462 43.475
rfemur -6.14239 -4.10534 23.6774
rtibia 45.5557
rfoot -166.742 22.1166
rtoes -2.07216
lfemur -52.553 5.46397 -14.6137
ltibia 96.3557
lfoot -7.45154 -8.81237
ltoes -10.1784
53
root 6.77934 16.5206 30.1532 -167.233 6.69992 -176.05
lowerback 19.0904 4.82918 0.417485
upperback 4.6469 7.42708 2.97952
thorax -5.95642 3.949 1.13415
lowerneck -11.0277 -4.24005 -13.3484
upperneck 18.9299 -8.20681 17.7765
head 8.9905 -3.60334 7.46409
rclavicle -4.17448e-014 2.62396e-014
rhumerus -32.4797 -1.39891 -79.653
rradius 107.092
rwrist 5.83741
rhand -36.2442 -13.3209
rfingers 7.12502
rthumb -9.34542 -43.0938
lclavicle -4.17448e-014 2.62396e-014
lhumerus -80.208 -18.719 98.7306
lradius 64.2176
lwrist -11.1251
lhand -33.2239 13.1276
lfingers 7.12502
lthumb -6.43036 43.01
rfemur -4.36776 -3.67801 23.3473
rtibia 43.456
rfoot -165.978 22.0987
rtoes -1.2516
lfemur -55.351 6.04679 -15.1588
ltibia 96.2321
lfoot -8.82853 -8.24537
ltoes -10.7967
54
root 6.77673 16.5341 29.8593 -166.798 6.98352 -176.061
lowerback 18.4573 5.06468 0.284084
upperback 4.4433 7.6316 2.78523
thorax -5.83482 4.02788 1.00347
lowerneck -10.9579 -4.45353 -13.4004
upperneck 18.4796 -8.4244 17.8787
head 8.87469 -3.69631 7.46673
rclavicle -9.54166e-014 -2.22639e-014
rhumerus -30.8358 0.10948 -79.2126
rradius 110.387
rwrist 4.19957
rhand -36.1466 -13.4148
rfingers 7.12502
rthumb -9.25122 -43.1918
lclavicle -9.54166e-014 -2.22639e-014
lhumerus -82.8618 -19.2626 98.6806
lradius 65.0484
lwrist -11.4918
lhand -32.7783 12.1683
lfingers 7.12502
lthumb -6.00018 42.0633
rfemur -2.72259 -3.88618 22.832
rtibia 41.3003
rfoot -164.558 22.1501
rtoes -1.85894
lfemur -57.9189 6.33997 -15.7973
ltibia 95.678
lfoot -10.2834 -7.31376
ltoes -10.7421
55
root 6.77685 16.5626 29.5522 -166.492 7.44052 -175.962
lowerback 17.9378 5.41159 0.0885101
upperback 4.27066 7.99166 2.65752
thorax -5.76008 4.18789 0.934692
lowerneck -10.8075 -4.67178 -13.5509
upperneck 17.9886 -8.65077 18.0544
head 8.74039 -3.80015 7.51335
rclavicle 6.20208e-014 -3.97569e-015
rhumerus -29.2257 1.54294 -78.5264
rradius 113.409
rwrist 2.69111
rhand -36.5339 -12.7097
rfingers 7.12502
rthumb -9.625 -42.4698
lclavicle 6.20208e-014 -3.97569e-015
lhumerus -85.4926 -20.0288 98.9754
lradius 65.7888
lwrist -14.0451
lhand -32.8908 12.2662
lfingers 7.12502
lthumb -6.10875 42.1581
rfemur -0.828295 -3.2946 22.5488
rtibia 39.0404
rfoot -163.628 21.5862
rtoes -1.44222
lfemur -60.0027 6.76108 -16.2716
ltibia 94.6951
lfoot -11.5343 -6.52822
ltoes -11.3339
56
root 6.77277 16.595 29.2287 -166.126 7.49137 -175.952
lowerback 17.2557 5.62865 -0.0172057
upperback 4.08283 8.19968 2.54972
thorax -5.60124 4.27452 0.892566
lowerneck -10.6986 -4.95658 -13.6445
upperneck 17.514 -8.9439 18.0987
head 8.62457 -3.937 7.49246
rclavicle -9.10434e-014 0
rhumerus -27.846 2.60137 -77.5507
rradius 116.25
rwrist 2.92603
rhand -35.869 -12.9145
rfingers 7.12502
rthumb -8.98337 -42.7032
lclavicle -9.10434e-014 0
lhumerus -87.8287 -20.6754 99.1231
lradius 67.5455
lwrist -11.5909
lhand -31.7488 10.9976
lfingers 7.12502
lthumb -5.00622 40.9185
rfemur 1.02355 -2.97935 22.3271
rtibia 36.7839
rfoot -162.408 20.7365
rtoes -3.35048
lfemur -61.9028 6.77204 -16.7733
ltibia 93.2994
lfoot -12.8162 -5.79095
ltoes -11.431
57
root 6.77472 16.6379 28.8947 -165.856 7.47232 -176.002
lowerback 16.5848 5.83215 -0.165837
upperback 3.96584 8.39309 2.42205
thorax -5.37344 4.35955 0.86363
lowerneck -10.6256 -5.25933 -13.7311
upperneck 17.0468 -9.26411 18.1552
head 8.52447 -4.08383 7.47158
rclavicle 3.22031e-014 -1.66979e-014
rhumerus -26.4225 3.41807 -76.4899
rradius 118.86
rwrist 2.98325
rhand -35.2368 -12.6489
rfingers 7.12502
rthumb -8.37334 -42.463
lclavicle 3.22031e-014 -1.66979e-014
lhumerus -89.9744 -21.508 99.4504
lradius 68.844
lwrist -11.4844
lhand -31.7109 10.6673
lfingers 7.12502
lthumb -4.96957 40.5891
rfemur 2.9164 -2.62404 22.1174
rtibia 34.551
rfoot -160.95 19.5292
rtoes -3.08288
lfemur -63.3204 6.66922 -17.1858
ltibia 91.5191
lfoot -13.7982 -5.69066
ltoes -11.394
58
root 6.77035 16.6968 28.5427 -165.584 7.64488 -176.019
lowerback 15.9185 6.06455 -0.361776
upperback 3.8301 8.62007 2.31638
thorax -5.17816 4.4607 0.878076
lowerneck -10.5726 -5.55606 -13.8126
upperneck 16.6126 -9.55469 18.1159
head 8.4288 -4.22142 7.41939
rclavicle -1.43125e-014 -3.57812e-014
rhumerus -25.3514 4.89947 -75.2868
rradius 121.339
rwrist 2.90369
rhand -35.4932 -13.3384
rfingers 7.12502
rthumb -8.62076 -43.1424
lclavicle -1.43125e-014 -3.57812e-014
lhumerus -91.7367 -21.798 99.5547
lradius 70.2391
lwrist -10.9074
lhand -31.5657 10.177
lfingers 7.12502
lthumb -4.82934 40.102
rfemur 4.70117 -2.0735 21.8585
rtibia 32.4667
rfoot -159.452 18.0278
rtoes -3.8441
lfemur -64.3087 6.64152 -17.5613
ltibia 89.3864
lfoot -14.8959 -5.27616
ltoes -11.7015
59
root 6.77061 16.7671 28.1832 -165.32 7.65423 -176.099
lowerback 15.4392 6.21056 -0.534351
upperback 3.59065 8.72746 2.1218
thorax -5.17189 4.49664 0.786837
lowerneck -10.5486 -5.78706 -13.9571
upperneck 16.2398 -9.81077 18.2852
head 8.36759 -4.33659 7.46166
rclavicle -5.1684e-014 -7.95139e-015
rhumerus -24.5981 6.196 -74.4727
rradius 123.477
rwrist 3.3652
rhand -35.4277 -13.5868
rfingers 7.12502
rthumb -8.55757 -43.3934
lclavicle -5.1684e-014 -7.95139e-015
lhumerus -93.1207 -21.8691 99.3913
lradius 71.3546
lwrist -10.312
lhand -31.2703 10.8517
lfingers 7.12502
lthumb -4.54419 40.783
rfemur 6.36133 -1.97094 21.5131
rtibia 30.5261
rfoot -157.448 16.2588
rtoes -5.61154
lfemur -64.942 6.40135 -17.9119
ltibia 86.9617
lfoot -15.7971 -4.99011
ltoes -11.6386
